<?xml version="1.0" encoding="UTF-8" standalone="no"?>
<!-- Created with Inkscape (http://www.inkscape.org/) -->

<svg
   xmlns:dc="http://purl.org/dc/elements/1.1/"
   xmlns:cc="http://creativecommons.org/ns#"
   xmlns:rdf="http://www.w3.org/1999/02/22-rdf-syntax-ns#"
   xmlns:svg="http://www.w3.org/2000/svg"
   xmlns="http://www.w3.org/2000/svg"
   xmlns:sodipodi="http://sodipodi.sourceforge.net/DTD/sodipodi-0.dtd"
   xmlns:inkscape="http://www.inkscape.org/namespaces/inkscape"
   version="1.1"
   id="svg1083"
   width="360.00003"
   height="360.28241"
   viewBox="0 0 360.00002 360.2824"
   sodipodi:docname="favicon.svg"
   inkscape:version="0.92.4 (5da689c313, 2019-01-14)">
  <metadata
     id="metadata1089">
    <rdf:RDF>
      <cc:Work
         rdf:about="">
        <dc:format>image/svg+xml</dc:format>
        <dc:type
           rdf:resource="http://purl.org/dc/dcmitype/StillImage" />
        <dc:title></dc:title>
      </cc:Work>
    </rdf:RDF>
  </metadata>
  <defs
     id="defs1087" />
  <sodipodi:namedview
     pagecolor="#b30086"
     bordercolor="#666666"
     borderopacity="1"
     objecttolerance="10"
     gridtolerance="10"
     guidetolerance="10"
     inkscape:pageopacity="1"
     inkscape:pageshadow="2"
     inkscape:window-width="1366"
     inkscape:window-height="705"
     id="namedview1085"
     showgrid="false"
     fit-margin-top="50"
     fit-margin-left="50"
     fit-margin-right="50"
     fit-margin-bottom="50"
     inkscape:zoom="0.91001812"
     inkscape:cx="307.09626"
     inkscape:cy="133.25321"
     inkscape:window-x="-8"
     inkscape:window-y="-8"
     inkscape:window-maximized="1"
     inkscape:current-layer="svg1083" />
  <path
     style="fill:none;stroke:#ffffff;stroke-width:0;stroke-linecap:butt;stroke-linejoin:miter;stroke-miterlimit:4;stroke-dasharray:none;stroke-opacity:1"
     d="m 62.304803,296.49659 c 0.268196,0.13013 0.550617,0.23431 0.804587,0.3904 0.02956,0.0182 0.0084,0.0704 0,0.10409 -0.02661,0.10644 -0.07748,0.20582 -0.104089,0.31227 -0.02203,0.0881 0,0.30828 0,0.41635 0,0.24288 0,0.48575 0,0.72863"
     id="path1883"
     inkscape:connector-curvature="0" />
  <g
     inkscape:groupmode="layer"
     id="layer1"
     inkscape:label="Layer 1"
     transform="translate(109.84545,251.80922)" />
  <g
     inkscape:groupmode="layer"
     id="layer2"
     inkscape:label="Layer 2"
     transform="translate(109.84545,251.80922)" />
  <path
     style="fill:none;stroke:#ffffff;stroke-width:1px;stroke-linecap:butt;stroke-linejoin:miter;stroke-opacity:1"
     d="m 64.358456,296.36654 v 0"
     id="path2344"
     inkscape:connector-curvature="0" />
  <g
     id="g1795"
     transform="matrix(6.4312034,0,0,5.3428713,255.01946,38.233966)"
     style="stroke:#ffffff;stroke-opacity:1">
    <path
       inkscape:connector-curvature="0"
       id="path1750"
       d="m -8.5736697,12.501438 c 0,0 -10.6949903,2.474874 -11.4020973,2.828427 -0.707106,0.353554 -6.894291,4.772971 -7.954951,5.833631 -1.06066,1.06066 -3.358757,6.098796 -3.358757,6.098796 l -0.08839,6.805903 c 0,0 2.032932,6.452349 2.828427,6.452349 0.795495,0 3.71231,3.181981 3.71231,3.181981 0,0 1.944544,-2.651651 3.977476,-0.795495 2.032932,1.856155 5.656854,3.623922 4.507806,4.507805 -1.149049,0.883884 4.596194,1.767767 7.7781743,0.795495 3.1819805,-0.972271 8.39689301,-4.419417 8.83883474,-6.275572 C 0.70710678,40.078602 2.2097087,36.012738 1.8561553,32.74237 1.5026019,29.472001 -1.2374369,17.627962 -1.0606602,19.307341 c 0.17677673,1.679378 -0.6187184,-3.623922 -0.6187184,-3.623922 0,0 3.3587572,-3.447146 4.1542523,-4.242641 0.7954952,-0.795495 2.9168155,-1.6793787 3.6239223,-2.2097088 0.7071068,-0.5303301 1.9445436,-4.065864 1.9445436,-4.065864 0,0 -0.1767767,-2.6516504 -0.7954951,-2.3864854 C 6.6291261,3.0438848 5.2149125,4.104545 5.2149125,4.104545 L 4.065864,2.9554965 c 0,0 -1.5909903,-0.5303301 -1.0606602,0 0.5303301,0.5303301 1.1490485,1.6793786 1.1490485,1.6793786 L 1.4142136,5.2535935 0.88388347,5.1652052 0.35355339,4.3697101 c 0,0 -0.79549513,-0.7954952 -0.70710678,0.4419417 0.0883884,1.2374369 -2.03293201,3.5355339 -2.03293201,3.5355339 0,0 0.5617318,-0.6972228 0.031402,-0.078504 -0.5303301,0.6187185 -3.0366055,2.6417663 -3.5669356,2.9953193 -0.5303301,0.353554 -2.6516504,1.237437 -2.6516507,1.237437 z"
       style="fill:none;stroke:#ffffff;stroke-width:1px;stroke-linecap:butt;stroke-linejoin:miter;stroke-opacity:1"
       sodipodi:nodetypes="ccsccscsssssscsscsccsccccscscc" />
  </g>
  <path
     style="fill:#ffffff;fill-opacity:1;stroke:#ffffff;stroke-width:1.17236674;stroke-linecap:butt;stroke-linejoin:miter;stroke-miterlimit:4;stroke-dasharray:none;stroke-opacity:1"
     d="m 146.14343,295.17387 0.47874,-4.94453 c 6.86358,-0.98312 -19.40738,-14.55015 -19.40738,-14.55015 -18.92865,-19.49466 -31.241132,-0.19662 -31.241132,-0.19662 0,0 3.776075,32.89401 50.169802,19.6913"
     id="path2335"
     inkscape:connector-curvature="0"
     sodipodi:nodetypes="ccccc" />
  <path
     style="fill:none;stroke:#ffffff;stroke-width:5.86183357px;stroke-linecap:butt;stroke-linejoin:miter;stroke-opacity:1"
     d="m 139.48513,258.15611 c 0,0 103.42522,-186.677734 128.6659,-179.006046"
     id="path2361"
     inkscape:connector-curvature="0" />
  <path
     style="fill:none;stroke:#ffffff;stroke-width:5.86183357px;stroke-linecap:butt;stroke-linejoin:miter;stroke-opacity:1"
     d="M 92.081906,242.81274 C 87.502214,248.15895 49.362394,192.87362 165.42893,127.64967"
     id="path2363"
     inkscape:connector-curvature="0"
     sodipodi:nodetypes="cc" />
  <g
     id="g876"
     transform="matrix(3.2725611,0,0,2.718756,71.235005,150.08325)"
     style="stroke:#ffffff;stroke-opacity:1">
    <path
       sodipodi:nodetypes="cc"
       inkscape:connector-curvature="0"
       id="path2365"
       d="M 33.08291,44.265673 C 34.558278,44.818937 61.045356,27.851585 49.046167,2.5413805"
       style="fill:none;stroke:#ffffff;stroke-width:1.9651897px;stroke-linecap:butt;stroke-linejoin:miter;stroke-opacity:1" />
  </g>
  <path
     style="fill:none;stroke:#ffffff;stroke-width:4.68946695;stroke-linecap:butt;stroke-linejoin:miter;stroke-miterlimit:4;stroke-dasharray:none;stroke-opacity:1"
     d="m 96.576584,277.48615 c -9.430338,4.0624 -17.119909,-2.42321 -18.749267,3.20344"
     id="path2340"
     inkscape:connector-curvature="0"
     sodipodi:nodetypes="cc" />
  <path
     style="fill:none;stroke:#ffffff;stroke-width:4.68946695;stroke-linecap:butt;stroke-linejoin:miter;stroke-miterlimit:4;stroke-dasharray:none;stroke-opacity:1"
     d="m 103.17182,286.24689 c -6.414069,-2.23909 -16.901883,-5.74628 -35.117398,6.72113"
     id="path2342"
     inkscape:connector-curvature="0"
     sodipodi:nodetypes="cc" />
  <path
     style="fill:none;stroke:#ffffff;stroke-width:4.68946695;stroke-linecap:butt;stroke-linejoin:miter;stroke-miterlimit:4;stroke-dasharray:none;stroke-opacity:1"
     d="m 132.93597,295.86867 c -8.0046,5.05548 -3.44174,8.02282 4.50505,10.42791"
     id="path2346"
     inkscape:connector-curvature="0"
     sodipodi:nodetypes="cc" />
  <path
     style="fill:none;stroke:#ffffff;stroke-width:4.68946695;stroke-linecap:butt;stroke-linejoin:miter;stroke-miterlimit:4;stroke-dasharray:none;stroke-opacity:1"
     d="m 120.35121,293.91252 -4.8234,8.89168 4.8234,6.01073"
     id="path2348"
     inkscape:connector-curvature="0"
     sodipodi:nodetypes="ccc" />
  <path
     style="fill:none;stroke:#ffffff;stroke-width:4.68946695;stroke-linecap:butt;stroke-linejoin:miter;stroke-miterlimit:4;stroke-dasharray:none;stroke-opacity:1"
     d="m 108.98235,291.07903 c 6.29773,5.89481 -1.33311,9.47532 -2.27378,14.16743"
     id="path2350"
     inkscape:connector-curvature="0"
     sodipodi:nodetypes="cc" />
  <path
     style="fill:none;stroke:#ffffff;stroke-width:4.10328341;stroke-linecap:butt;stroke-linejoin:miter;stroke-miterlimit:4;stroke-dasharray:none;stroke-opacity:1"
     d="m 106.26672,289.65162 c 0,0 -20.70044,3.00536 -22.509216,9.01609"
     id="path2354"
     inkscape:connector-curvature="0"
     sodipodi:nodetypes="cc" />
  <flowRoot
     xml:space="preserve"
     id="flowRoot60"
     style="font-style:normal;font-weight:normal;font-size:40px;line-height:1.25;font-family:sans-serif;letter-spacing:0px;word-spacing:0px;fill:#000000;fill-opacity:1;stroke:#ffffff;stroke-opacity:1"
     transform="translate(49.268406,213.14248)"><flowRegion
       id="flowRegion62"
       style="stroke:#ffffff;stroke-opacity:1"><rect
         id="rect64"
         width="892.39502"
         height="106.13436"
         x="90.972313"
         y="4.6598163"
         style="stroke:#ffffff;stroke-opacity:1" /></flowRegion><flowPara
       id="flowPara66" /></flowRoot></svg>
