<svg xmlns="http://www.w3.org/2000/svg" width="360" height="360.282"><path d="M62.305 296.497c.268.13.55.234.804.39.03.018.009.07 0 .104-.026.107-.077.206-.104.312-.022.088 0 .309 0 .417v.728" fill="none"/><path d="M64.358 296.367v0" fill="none" stroke="#fff"/><path d="M-8.574 12.501s-10.695 2.475-11.402 2.829c-.707.353-6.894 4.773-7.955 5.833-1.06 1.061-3.358 6.1-3.358 6.1l-.089 6.805s2.033 6.453 2.829 6.453c.795 0 3.712 3.182 3.712 3.182s1.944-2.652 3.977-.796 5.657 3.624 4.508 4.508c-1.149.884 4.596 1.768 7.778.795 3.182-.972 8.397-4.42 8.84-6.275.441-1.856 1.944-5.922 1.59-9.193-.353-3.27-3.093-15.114-2.917-13.435.177 1.68-.618-3.624-.618-3.624s3.358-3.447 4.154-4.242c.795-.796 2.917-1.68 3.624-2.21.707-.53 1.944-4.066 1.944-4.066s-.176-2.651-.795-2.386c-.619.265-2.033 1.326-2.033 1.326l-1.15-1.15s-1.59-.53-1.06 0 1.15 1.68 1.15 1.68l-2.74.619-.531-.089-.53-.795s-.796-.796-.708.442c.089 1.237-2.032 3.535-2.032 3.535s.561-.697.03-.078c-.53.618-3.036 2.641-3.566 2.995-.53.354-2.652 1.237-2.652 1.237z" fill="none" transform="matrix(6.4312 0 0 5.34287 255.02 38.234)" stroke="#fff"/><path d="M146.143 295.174l.48-4.945c6.863-.983-19.408-14.55-19.408-14.55-18.929-19.494-31.241-.196-31.241-.196s3.776 32.894 50.17 19.69" fill="#fff" stroke="#fff" stroke-width="1.172"/><path d="M139.485 258.156S242.91 71.478 268.151 79.15M92.082 242.813c-4.58 5.346-42.72-49.94 73.347-115.163" fill="none" stroke="#fff" stroke-width="5.862"/><path d="M33.083 44.266c1.475.553 27.962-16.414 15.963-41.725" fill="none" stroke-width="1.965" transform="matrix(3.27256 0 0 2.71876 71.235 150.083)" stroke="#fff"/><path d="M96.577 277.486c-9.43 4.063-17.12-2.423-18.75 3.204m25.345 5.557c-6.414-2.24-16.902-5.746-35.118 6.721m64.882 2.901c-8.005 5.055-3.442 8.022 4.505 10.428m-17.09-12.384l-4.823 8.891 4.823 6.01m-11.369-17.735c6.298 5.895-1.333 9.475-2.273 14.167" fill="none" stroke="#fff" stroke-width="4.689"/><path d="M106.267 289.652s-20.7 3.005-22.51 9.016" fill="none" stroke="#fff" stroke-width="4.103"/></svg>