<?xml version="1.0" encoding="UTF-8" standalone="no"?>
<!-- Created with Inkscape (http://www.inkscape.org/) -->

<svg
   xmlns:dc="http://purl.org/dc/elements/1.1/"
   xmlns:cc="http://creativecommons.org/ns#"
   xmlns:rdf="http://www.w3.org/1999/02/22-rdf-syntax-ns#"
   xmlns:svg="http://www.w3.org/2000/svg"
   xmlns="http://www.w3.org/2000/svg"
   xmlns:sodipodi="http://sodipodi.sourceforge.net/DTD/sodipodi-0.dtd"
   xmlns:inkscape="http://www.inkscape.org/namespaces/inkscape"
   version="1.1"
   id="svg1083"
   width="79.448486"
   height="95.632126"
   viewBox="0 0 79.448485 95.632124"
   sodipodi:docname="logo.svg"
   inkscape:version="0.92.4 (5da689c313, 2019-01-14)">
  <metadata
     id="metadata1089">
    <rdf:RDF>
      <cc:Work
         rdf:about="">
        <dc:format>image/svg+xml</dc:format>
        <dc:type
           rdf:resource="http://purl.org/dc/dcmitype/StillImage" />
        <dc:title></dc:title>
      </cc:Work>
    </rdf:RDF>
  </metadata>
  <defs
     id="defs1087">
    <filter
       inkscape:collect="always"
       style="color-interpolation-filters:sRGB"
       id="filter2303"
       x="-0.087694019"
       width="1.175388"
       y="-0.15804756"
       height="1.3160951">
      <feGaussianBlur
         inkscape:collect="always"
         stdDeviation="0.28894411"
         id="feGaussianBlur2305" />
    </filter>
  </defs>
  <sodipodi:namedview
     pagecolor="#ffffff"
     bordercolor="#666666"
     borderopacity="1"
     objecttolerance="10"
     gridtolerance="10"
     guidetolerance="10"
     inkscape:pageopacity="0"
     inkscape:pageshadow="2"
     inkscape:window-width="1366"
     inkscape:window-height="705"
     id="namedview1085"
     showgrid="false"
     fit-margin-top="0"
     fit-margin-left="0"
     fit-margin-right="0"
     fit-margin-bottom="0"
     inkscape:zoom="5.223301"
     inkscape:cx="52.097131"
     inkscape:cy="117.48946"
     inkscape:window-x="-8"
     inkscape:window-y="-8"
     inkscape:window-maximized="1"
     inkscape:current-layer="svg1083" />
  <path
     style="fill:none;stroke:#000000;stroke-width:0;stroke-linecap:butt;stroke-linejoin:miter;stroke-miterlimit:4;stroke-dasharray:none;stroke-opacity:1"
     d="m 13.036398,83.354111 c 0.268196,0.130134 0.550617,0.234315 0.804587,0.390403 0.02956,0.01817 0.0084,0.07043 0,0.104089 -0.02661,0.106444 -0.07748,0.205824 -0.104089,0.312268 -0.02203,0.08812 0,0.308284 0,0.416357 0,0.242874 0,0.485749 0,0.728624"
     id="path1883"
     inkscape:connector-curvature="0" />
  <path
     style="fill:#ffccaa;stroke:none;stroke-width:1px;stroke-linecap:butt;stroke-linejoin:miter;stroke-opacity:1;filter:url(#filter2303)"
     d="m 7.1822645,78.836364 7.9077905,4.387704"
     id="path1889"
     inkscape:connector-curvature="0" />
  <g
     inkscape:groupmode="layer"
     id="layer1"
     inkscape:label="Layer 1"
     transform="translate(60.577044,38.666744)" />
  <g
     inkscape:groupmode="layer"
     id="layer2"
     inkscape:label="Layer 2"
     transform="translate(60.577044,38.666744)" />
  <path
     style="fill:none;stroke:#000000;stroke-width:1px;stroke-linecap:butt;stroke-linejoin:miter;stroke-opacity:1"
     d="m 15.090051,83.224068 v 0"
     id="path2344"
     inkscape:connector-curvature="0" />
  <g
     id="g891"
     transform="translate(6.4887986,36.812149)">
    <g
       transform="matrix(1.9651897,0,0,1.9651897,56.159218,-41.139876)"
       id="g1795">
      <path
         sodipodi:nodetypes="ccsccscsssssscsscsccsccccscscc"
         style="fill:none;stroke:#b30086;stroke-width:1px;stroke-linecap:butt;stroke-linejoin:miter;stroke-opacity:1"
         d="m -8.5736697,12.501438 c 0,0 -10.6949903,2.474874 -11.4020973,2.828427 -0.707106,0.353554 -6.894291,4.772971 -7.954951,5.833631 -1.06066,1.06066 -3.358757,6.098796 -3.358757,6.098796 l -0.08839,6.805903 c 0,0 2.032932,6.452349 2.828427,6.452349 0.795495,0 3.71231,3.181981 3.71231,3.181981 0,0 1.944544,-2.651651 3.977476,-0.795495 2.032932,1.856155 5.656854,3.623922 4.507806,4.507805 -1.149049,0.883884 4.596194,1.767767 7.7781743,0.795495 3.1819805,-0.972271 8.39689301,-4.419417 8.83883474,-6.275572 C 0.70710678,40.078602 2.2097087,36.012738 1.8561553,32.74237 1.5026019,29.472001 -1.2374369,17.627962 -1.0606602,19.307341 c 0.17677673,1.679378 -0.6187184,-3.623922 -0.6187184,-3.623922 0,0 3.3587572,-3.447146 4.1542523,-4.242641 0.7954952,-0.795495 2.9168155,-1.6793787 3.6239223,-2.2097088 0.7071068,-0.5303301 1.9445436,-4.065864 1.9445436,-4.065864 0,0 -0.1767767,-2.6516504 -0.7954951,-2.3864854 C 6.6291261,3.0438848 5.2149125,4.104545 5.2149125,4.104545 L 4.065864,2.9554965 c 0,0 -1.5909903,-0.5303301 -1.0606602,0 0.5303301,0.5303301 1.1490485,1.6793786 1.1490485,1.6793786 L 1.4142136,5.2535935 0.88388347,5.1652052 0.35355339,4.3697101 c 0,0 -0.79549513,-0.7954952 -0.70710678,0.4419417 0.0883884,1.2374369 -2.03293201,3.5355339 -2.03293201,3.5355339 0,0 0.5617318,-0.6972228 0.031402,-0.078504 -0.5303301,0.6187185 -3.0366055,2.6417663 -3.5669356,2.9953193 -0.5303301,0.353554 -2.6516504,1.237437 -2.6516507,1.237437 z"
         id="path1750"
         inkscape:connector-curvature="0" />
    </g>
    <path
       sodipodi:nodetypes="ccccc"
       inkscape:connector-curvature="0"
       id="path2335"
       d="m 22.88985,53.366547 0.146289,-1.818673 c 2.097313,-0.361607 -5.930334,-5.351768 -5.930334,-5.351768 -5.78405,-7.170434 -9.5463882,-0.07232 -9.5463882,-0.07232 0,0 1.1538592,12.098921 15.3304412,7.24276"
       style="fill:#e9c6af;stroke:#e9c6af;stroke-width:0.39303795;stroke-linecap:butt;stroke-linejoin:miter;stroke-miterlimit:4;stroke-dasharray:none;stroke-opacity:1" />
    <path
       inkscape:connector-curvature="0"
       id="path2361"
       d="m 20.855265,39.75085 c 0,0 31.603759,-68.662924 39.31658,-65.84116"
       style="fill:none;stroke:#b30086;stroke-width:1.9651897px;stroke-linecap:butt;stroke-linejoin:miter;stroke-opacity:1" />
    <path
       sodipodi:nodetypes="cc"
       inkscape:connector-curvature="0"
       id="path2363"
       d="M 6.3702098,34.107323 C 4.9707884,36.073741 -6.6836375,15.738952 28.782943,-8.2514138"
       style="fill:none;stroke:#b30086;stroke-width:1.9651897px;stroke-linecap:butt;stroke-linejoin:miter;stroke-opacity:1" />
    <g
       id="g876">
      <path
         style="fill:none;stroke:#b30086;stroke-width:1.9651897px;stroke-linecap:butt;stroke-linejoin:miter;stroke-opacity:0.95220588"
         d="M 33.08291,44.265673 C 34.558278,44.818937 61.045356,27.851585 49.046167,2.5413805"
         id="path2365"
         inkscape:connector-curvature="0"
         sodipodi:nodetypes="cc" />
    </g>
    <path
       sodipodi:nodetypes="cc"
       inkscape:connector-curvature="0"
       id="path2340"
       d="M 7.7436533,46.860734 C 4.8620151,48.354946 2.5123046,45.969441 2.0144199,48.039006"
       style="fill:none;stroke:#e4c1af;stroke-width:1.57215178;stroke-linecap:butt;stroke-linejoin:miter;stroke-miterlimit:4;stroke-dasharray:none;stroke-opacity:1" />
    <path
       sodipodi:nodetypes="cc"
       inkscape:connector-curvature="0"
       id="path2342"
       d="M 9.7589652,50.083067 C 7.7990127,49.259497 4.5942403,47.969498 -0.97189419,52.555203"
       style="fill:none;stroke:#e4c1af;stroke-width:1.57215178;stroke-linecap:butt;stroke-linejoin:miter;stroke-miterlimit:4;stroke-dasharray:none;stroke-opacity:1" />
    <path
       sodipodi:nodetypes="cc"
       inkscape:connector-curvature="0"
       id="path2346"
       d="m 18.854032,53.622106 c -2.445975,1.859482 -1.051697,2.950915 1.376612,3.835542"
       style="fill:none;stroke:#e4c1af;stroke-width:1.57215178;stroke-linecap:butt;stroke-linejoin:miter;stroke-miterlimit:4;stroke-dasharray:none;stroke-opacity:1" />
    <path
       sodipodi:nodetypes="ccc"
       inkscape:connector-curvature="0"
       id="path2348"
       d="m 15.008492,52.902603 -1.473892,3.270496 1.473892,2.210839"
       style="fill:none;stroke:#e4c1af;stroke-width:1.57215178;stroke-linecap:butt;stroke-linejoin:miter;stroke-miterlimit:4;stroke-dasharray:none;stroke-opacity:1" />
    <path
       sodipodi:nodetypes="cc"
       inkscape:connector-curvature="0"
       id="path2350"
       d="m 11.534496,51.860404 c 1.924405,2.1682 -0.407358,3.485166 -0.6948,5.210995"
       style="fill:none;stroke:#e4c1af;stroke-width:1.57215178;stroke-linecap:butt;stroke-linejoin:miter;stroke-miterlimit:4;stroke-dasharray:none;stroke-opacity:1" />
    <path
       sodipodi:nodetypes="cc"
       inkscape:connector-curvature="0"
       id="path2354"
       d="m 10.704677,51.335378 c 0,0 -6.325454,1.105419 -6.8781636,3.316258"
       style="fill:none;stroke:#e9c6af;stroke-width:1.37563276;stroke-linecap:butt;stroke-linejoin:miter;stroke-miterlimit:4;stroke-dasharray:none;stroke-opacity:1" />
  </g>
</svg>
